<?xml version="1.0" standalone="no"?>
<!DOCTYPE svg PUBLIC "-//W3C//DTD SVG 20010904//EN"
 "http://www.w3.org/TR/2001/REC-SVG-20010904/DTD/svg10.dtd">
<svg version="1.0" xmlns="http://www.w3.org/2000/svg"
 width="275.000000pt" height="183.000000pt" viewBox="0 0 275.000000 183.000000"
 preserveAspectRatio="xMidYMid meet">
<metadata>
Created by potrace 1.16, written by Peter Selinger 2001-2019
</metadata>
<g transform="translate(0.000000,183.000000) scale(0.100000,-0.100000)"
fill="#000000" stroke="none">
<path d="M432 1680 c-8 -85 -18 -195 -23 -243 -5 -49 -10 -132 -10 -185 -1
-52 -5 -108 -9 -124 -7 -21 -5 -28 6 -28 8 0 14 10 15 23 1 17 3 15 11 -10 7
-22 17 -33 30 -33 16 0 18 6 12 53 -3 28 -9 198 -12 377 l-7 325 -13 -155z"/>
<path d="M2401 1533 c-6 -49 -18 -153 -27 -233 -17 -164 -19 -174 -46 -212
-22 -31 -13 -35 37 -14 32 14 35 19 35 58 1 24 5 142 10 263 4 121 7 221 6
223 -2 1 -8 -37 -15 -85z"/>
<path d="M1520 1362 c-43 -25 -44 -26 -20 -32 17 -4 21 -8 12 -14 -6 -4 -16
-5 -21 -2 -5 4 -22 1 -36 -4 -32 -12 -65 -5 -65 15 0 23 20 28 41 9 17 -16 19
-16 19 -1 0 10 -7 17 -15 17 -8 0 -15 7 -15 15 0 11 -13 7 -50 -15 -59 -35
-73 -37 -97 -12 -17 16 -20 16 -50 1 -18 -9 -29 -19 -26 -23 4 -4 -10 -6 -30
-4 -30 2 -39 7 -43 25 l-6 23 -46 -25 c-28 -16 -53 -23 -65 -19 -12 4 -17 2
-13 -4 3 -5 21 -12 40 -14 19 -2 32 0 30 4 -3 4 2 8 10 8 41 0 -22 -45 -99
-70 -15 -5 -8 -9 28 -15 33 -5 52 -4 62 5 8 7 15 9 15 6 0 -12 -27 -36 -33
-30 -3 4 -15 -1 -27 -9 l-21 -14 22 -6 c22 -6 18 -27 -7 -27 -8 0 -14 -4 -14
-10 0 -14 20 -12 52 4 16 9 27 10 25 4 -1 -6 4 -13 11 -15 6 -3 12 0 12 5 0 6
10 8 22 4 14 -3 19 -2 14 6 -4 7 -13 12 -21 12 -17 0 -28 17 -21 29 4 5 18 5
35 -2 17 -6 27 -15 24 -20 -3 -6 2 -16 11 -23 16 -12 16 -13 -5 -25 -13 -7
-30 -18 -37 -26 -10 -10 -18 -10 -34 -2 -16 9 -19 8 -16 -3 3 -8 21 -13 53
-12 41 0 45 -1 29 -13 -10 -7 -22 -13 -27 -13 -4 0 -5 -4 -2 -10 3 -5 16 -10
28 -10 17 0 11 -7 -26 -31 -33 -20 -55 -28 -69 -23 -15 4 -18 3 -13 -6 4 -7
22 -10 41 -8 48 6 42 -8 -18 -38 -37 -19 -48 -28 -37 -34 25 -14 79 1 96 27
12 18 18 21 25 11 5 -8 6 -3 2 14 -4 19 -1 33 10 43 9 9 16 25 16 34 0 10 7
24 15 31 8 7 15 24 15 38 0 23 1 24 18 10 22 -21 79 -12 112 16 l24 21 -16
-25 c-8 -14 -25 -30 -37 -36 -13 -7 -28 -17 -34 -24 -9 -10 -6 -11 16 -8 36 7
35 -8 -3 -27 -16 -9 -30 -20 -30 -27 0 -6 -11 -8 -30 -4 -16 3 -30 1 -30 -4 0
-5 19 -10 43 -12 l42 -4 -45 -21 c-24 -12 -48 -19 -53 -16 -5 3 -7 0 -5 -8 7
-21 88 -17 104 6 7 9 18 14 24 10 9 -6 9 -2 1 13 -8 16 -6 25 10 46 11 14 18
30 15 34 -3 5 1 18 9 28 8 10 15 29 15 42 0 23 10 28 26 12 18 -18 82 -15 104
5 20 18 21 18 43 -4 22 -23 22 -23 1 -12 -17 8 -25 7 -34 -4 -6 -8 -8 -20 -4
-26 4 -8 3 -9 -5 -5 -16 10 -73 -3 -65 -16 4 -5 20 -7 37 -4 29 6 30 5 13 -13
-9 -10 -31 -21 -47 -25 -32 -6 -37 -34 -5 -28 19 3 22 -13 4 -25 -26 -16 -82
-32 -92 -26 -6 4 -5 0 1 -8 7 -9 31 -16 53 -17 30 -1 42 3 50 18 16 29 32 25
18 -5 -21 -47 -99 -80 -135 -57 -7 4 -16 19 -22 32 -6 16 -10 19 -10 8 -1 -23
-62 -58 -100 -58 -27 0 -32 4 -38 30 l-6 30 -23 -23 c-40 -40 -70 -52 -100
-39 -21 10 -25 18 -23 47 2 18 0 37 -4 41 -12 13 -8 44 8 50 8 4 15 14 15 24
0 9 9 29 20 43 27 34 25 40 -7 23 -46 -23 -92 -29 -111 -15 -16 12 -16 11 -2
-4 9 -10 34 -18 57 -20 l42 -2 -21 -22 c-11 -12 -33 -25 -49 -28 -45 -10 -49
-29 -6 -22 54 9 48 -17 -8 -33 -24 -7 -42 -17 -39 -22 8 -13 66 -2 75 14 5 7
11 10 14 6 11 -11 -18 -47 -48 -59 -16 -7 -42 -12 -58 -11 -28 1 -29 0 -23
-41 2 -22 15 -55 28 -72 12 -16 27 -43 33 -60 6 -16 14 -39 19 -49 5 -13 4
-17 -3 -13 -21 13 -40 -3 -35 -29 2 -13 0 -24 -6 -24 -6 0 -24 -12 -41 -26
-44 -37 -41 -69 7 -91 40 -20 50 -47 16 -49 -34 -2 -46 -14 -40 -39 5 -18 1
-25 -14 -30 -30 -9 -24 -23 15 -39 19 -8 46 -26 60 -40 25 -26 41 -20 31 12
-10 29 81 116 232 222 37 26 84 55 105 65 48 23 42 28 -16 15 -51 -11 -74 -6
-80 18 -3 11 -5 9 -6 -7 -1 -17 -5 -21 -17 -17 -8 3 -12 2 -9 -3 3 -5 1 -12
-5 -16 -5 -3 -10 0 -10 7 0 7 -8 2 -16 -12 -20 -32 -70 -63 -106 -67 -38 -4
-63 34 -54 82 6 31 15 39 66 65 33 17 67 30 77 31 12 0 8 4 -9 11 -27 9 -28
11 -28 91 1 61 3 77 11 65 16 -28 42 -23 37 6 -3 16 0 27 10 31 20 7 30 -4 13
-15 -8 -4 -11 -15 -8 -24 10 -25 25 -19 29 12 3 22 6 17 16 -26 7 -29 12 -68
12 -86 l0 -33 50 5 c45 4 52 2 81 -27 22 -22 30 -38 26 -52 -5 -17 -2 -20 15
-16 42 11 98 -35 98 -80 0 -20 -35 -47 -50 -38 -5 3 -30 0 -56 -6 -35 -9 -48
-9 -53 0 -5 8 -15 5 -32 -12 -14 -12 -48 -41 -75 -62 -27 -22 -50 -43 -52 -47
-2 -5 -12 -8 -23 -8 -11 0 -22 -7 -25 -15 -4 -8 -12 -15 -19 -15 -6 0 -19 -8
-28 -18 -9 -10 -32 -24 -52 -32 -35 -14 -45 -34 -22 -44 6 -3 2 -3 -10 0 -34
8 -28 -5 9 -20 27 -12 39 -12 81 1 32 9 66 12 102 8 37 -5 70 -2 109 9 88 26
203 82 215 105 11 19 14 20 34 7 34 -22 98 -30 109 -14 8 10 9 10 5 -2 -5 -21
50 -60 85 -60 47 0 98 26 98 50 0 12 -4 18 -10 15 -5 -3 -10 -12 -10 -19 0 -8
-12 -11 -35 -8 -21 3 -35 10 -35 18 0 8 0 16 0 19 0 14 -43 45 -62 46 -21 0
-21 1 -4 8 18 7 18 8 2 14 -26 10 -38 8 -30 -4 3 -6 -5 -4 -18 5 -14 9 -28 13
-31 9 -4 -3 -7 7 -7 24 0 38 34 83 64 83 18 0 24 8 32 37 6 27 17 42 38 52
l29 14 -7 163 -6 164 27 0 c16 0 52 3 81 6 47 6 52 5 52 -13 0 -15 -8 -20 -42
-22 -25 -1 -46 -8 -51 -17 -4 -7 -15 -14 -23 -14 -13 0 -14 -8 -7 -47 4 -27 8
-71 8 -99 l0 -52 23 19 c34 26 73 32 143 19 97 -18 136 -42 165 -103 13 -29
24 -58 24 -66 0 -10 3 -11 13 -3 7 6 29 9 48 6 19 -2 41 0 49 5 12 8 6 18 -33
54 -26 25 -47 51 -47 59 0 26 -25 67 -44 72 -14 4 -17 11 -12 30 3 14 3 26 -1
26 -17 0 -35 42 -24 53 16 16 13 37 -3 31 -9 -4 -16 2 -18 17 -4 29 -28 38
-28 10 0 -12 -6 -21 -14 -21 -7 0 -16 -9 -19 -20 -3 -11 -13 -20 -22 -20 -14
0 -15 3 -5 15 7 8 9 26 6 42 -7 32 -2 42 37 66 34 22 39 76 7 84 -22 6 -28 23
-8 23 7 0 2 7 -10 16 -12 8 -20 19 -17 24 3 5 1 11 -5 15 -15 9 -12 28 3 19 9
-5 9 -4 0 6 -29 31 -30 0 -2 -65 43 -102 43 -105 22 -105 -13 0 -26 -15 -40
-47 l-21 -48 -1 45 c0 25 3 51 8 59 6 9 1 29 -15 58 -13 25 -23 48 -21 51 1 4
-13 39 -32 77 -18 39 -40 85 -49 104 -9 19 -15 43 -15 53 2 28 -7 22 -21 -14
-31 -75 -31 -78 6 -76 l33 3 6 -65 c4 -36 7 -95 8 -132 l1 -66 -41 -7 c-22 -4
-43 -5 -46 -2 -3 3 -5 45 -4 94 0 48 -3 94 -7 100 -5 8 -26 -35 -57 -115 -27
-70 -53 -130 -58 -133 -5 -3 -7 -21 -5 -40 2 -25 -1 -34 -14 -37 -11 -2 -18 3
-18 11 0 22 -26 68 -34 60 -4 -4 -4 0 0 10 3 9 10 17 16 17 5 0 6 -4 3 -10 -3
-5 -1 -10 5 -10 7 0 10 6 7 14 -3 8 3 30 14 50 26 49 24 64 -5 37 -14 -14 -26
-18 -30 -12 -4 5 3 15 14 21 11 6 18 15 15 21 -4 6 -13 5 -25 -1 -22 -12 -57
-14 -46 -3 4 4 15 8 24 8 9 0 16 5 15 12 -2 7 3 10 10 7 19 -7 85 53 70 64 -9
6 -7 14 10 33 44 49 53 66 22 39 -17 -14 -35 -31 -42 -38 -6 -8 -20 -12 -30
-9 -15 3 -14 5 7 14 14 6 36 23 50 38 l25 27 -24 -7 c-15 -5 -21 -4 -17 3 3 6
2 13 -4 17 -5 3 -10 1 -10 -5 0 -6 -5 -8 -11 -4 -8 4 -7 9 2 15 8 4 19 3 27
-3 10 -9 18 -6 35 12 12 14 14 18 4 10 -29 -21 -32 -2 -3 21 14 11 31 30 37
41 10 19 9 20 -7 13 -11 -4 -39 -11 -63 -16 -25 -5 -48 -14 -51 -19 -7 -12
-40 -3 -40 11 0 5 19 12 41 15 l42 7 -24 18 c-29 22 -24 23 -79 -9z m-26 -528
c3 -9 6 -53 6 -99 l0 -84 -32 -3 c-18 -2 -48 -1 -65 1 l-33 3 0 87 c0 54 5 92
12 99 18 18 105 15 112 -4z m-4 -417 c0 -21 -8 -41 -20 -52 -11 -10 -17 -21
-15 -25 3 -4 -3 -14 -13 -21 -15 -13 -16 -12 -3 4 11 14 11 17 0 18 -10 0 -10
2 -2 5 7 3 9 12 6 20 -4 12 -8 12 -26 -1 -28 -20 -45 -19 -50 3 -4 13 -5 12
-6 -5 0 -12 -9 -28 -19 -35 -10 -7 -21 -21 -25 -30 -8 -22 -27 -24 -27 -4 0
71 89 156 163 156 35 0 37 -1 37 -33z"/>
<path d="M1640 471 c0 -4 13 -17 30 -29 26 -20 28 -25 19 -48 -5 -15 -7 -29
-5 -32 3 -2 8 7 12 22 3 14 9 26 13 26 4 0 24 -22 45 -50 21 -27 42 -50 48
-50 5 0 6 -10 3 -21 -7 -21 -5 -21 68 -17 81 4 93 8 83 33 -5 13 -9 13 -27 3
-17 -10 -23 -10 -26 0 -3 6 -13 12 -24 12 -24 0 -25 17 -1 23 16 4 16 5 0 6
-10 0 -18 8 -18 17 0 12 -7 15 -26 11 -21 -4 -25 -1 -21 14 3 12 -2 19 -17 22
-21 4 -21 4 2 12 12 4 22 12 22 17 0 5 -10 6 -22 3 -15 -6 -20 -4 -16 6 4 10
-4 14 -26 16 -17 1 -50 3 -73 6 -24 2 -43 1 -43 -2z"/>
</g>
</svg>
